<svg width="66" height="66" viewBox="0 0 66 66" fill="none" xmlns="http://www.w3.org/2000/svg">
<g filter="url(#filter0_i_567_14128)">
<g filter="url(#filter1_i_567_14128)">
<path d="M42.7485 39.4514L49.6921 11.882L49.7057 43.0117L52.7588 41.7372L59.4448 8.87872L59.4561 34.2709C59.4572 36.7307 59.2877 38.0029 55.9803 39.4469V40.465C59.2889 39.1916 62.5115 38.0018 65.2257 37.1532V36.5589C63.2742 36.8143 62.5104 36.0516 62.5093 34.1003L62.4957 5.09131C62.4957 2.29256 64.2754 0.764939 65.6325 0.679067L65.4619 0C62.8324 0.255356 61.0516 0.850811 59.4403 1.78411L52.7532 33.8257L52.7396 4.41676L52.3147 3.90831C48.4989 6.53984 44.9361 7.38952 40.6106 8.32394C36.6241 9.17362 33.3178 12.0594 33.3189 16.2999C33.3201 19.693 35.4421 22.4058 39.3439 22.4047C42.9914 22.4036 45.9587 19.3483 45.9576 15.7858H45.448C45.448 17.9913 43.2457 21.6398 39.3428 21.6409C35.441 21.6432 35.354 17.4015 35.354 16.4682C35.354 15.5349 36.0297 10.3611 40.44 9.17136C43.4931 8.32168 47.1406 7.81097 49.6006 6.45284L41.1337 39.4526C39.3552 46.4082 34.5235 52.9424 28.416 52.9447V53.4531C32.4025 53.7062 39.7812 51.1583 42.7451 39.4514" fill="#F1F0EC"/>
</g>
<g filter="url(#filter2_i_567_14128)">
<path d="M30.7904 46.7517C32.4876 46.7517 32.9113 46.1574 33.9283 45.0534L33.4187 44.6297C33.1644 44.884 32.5712 45.563 31.7226 45.4783C30.874 45.3935 29.6017 45.0557 29.6005 42.3406L29.5926 25.4848C31.2548 25.626 32.8989 25.6656 34.5125 25.6294V24.9503C32.8978 24.9503 31.2537 24.8905 29.5926 24.7379L29.5858 10.4481C27.8898 10.0244 26.4468 9.09226 24.5801 7.31155L24.1564 7.73639C25.9383 9.85607 26.5338 12.7396 26.5349 15.4536L26.5394 24.3481C25.2705 24.138 23.9959 23.8657 22.7224 23.5131V24.2769C23.997 24.6283 25.2716 24.9018 26.5406 25.1085L26.5485 40.9949C23.3631 34.3353 16.2681 28.9298 12.7143 25.6373C8.04647 21.3132 7.53573 16.649 7.5346 13.6796C7.53347 10.7114 10.2454 6.21442 15.0805 6.21216C20.1698 6.2099 22.7168 11.2978 22.719 16.0479C22.7213 20.798 20.0083 23.4284 16.6997 23.4295C14.4093 23.4295 13.3064 21.9042 12.2025 19.954L11.694 20.2082C12.798 22.4985 14.1562 24.2792 17.0398 24.2769C19.9235 24.2758 25.2671 22.3222 25.2637 15.3666C25.2603 8.75103 20.6783 5.19073 15.928 5.19186C10.8386 5.19412 4.90178 9.0143 4.90517 16.5631C4.90856 24.112 12.6307 30.1309 14.1584 31.4021C15.6862 32.6732 25.3598 41.3214 25.3632 48.7855C25.3665 56.2496 21.893 64.734 14.0036 64.7374C4.75828 64.7419 4.1594 55.6654 4.15714 50.1527C4.15375 42.9428 7.45889 37.2583 12.5482 37.256C17.6376 37.2538 21.8817 42.1711 21.884 47.1754C21.8863 52.1797 18.1551 55.6586 15.102 55.6609C12.8963 55.6609 11.9629 54.8146 11.2838 54.305L10.8601 54.7299C12.303 55.9163 13.1516 56.3411 15.102 56.34C17.0523 56.34 22.6501 54.2158 22.6467 47.1754C22.6433 40.474 17.128 36.49 12.3776 36.4922C6.61029 36.499 -0.00451754 41.5067 2.31501e-06 50.6668C0.00452217 59.6574 5.77524 65.7622 13.9178 65.7588C21.2976 65.7554 28.1655 59.3907 28.1598 47.6002C28.1598 46.9562 28.1101 46.3201 28.0197 45.6907C28.8706 46.4297 29.9373 46.7506 30.7892 46.7506" fill="#F1F0EC"/>
</g>
<g filter="url(#filter3_i_567_14128)">
<path d="M36.1743 44.0342C37.65 44.0342 38.8467 42.8376 38.8467 41.362C38.8467 39.8863 37.65 38.6898 36.1743 38.6898C34.6986 38.6898 33.502 39.8863 33.502 41.362C33.502 42.8376 34.6986 44.0342 36.1743 44.0342Z" fill="#F1F0EC"/>
</g>
</g>
<defs>
<filter id="filter0_i_567_14128" x="0" y="0" width="65.6328" height="67.7588" filterUnits="userSpaceOnUse" color-interpolation-filters="sRGB">
<feFlood flood-opacity="0" result="BackgroundImageFix"/>
<feBlend mode="normal" in="SourceGraphic" in2="BackgroundImageFix" result="shape"/>
<feColorMatrix in="SourceAlpha" type="matrix" values="0 0 0 0 0 0 0 0 0 0 0 0 0 0 0 0 0 0 127 0" result="hardAlpha"/>
<feOffset dy="2"/>
<feGaussianBlur stdDeviation="1"/>
<feComposite in2="hardAlpha" operator="arithmetic" k2="-1" k3="1"/>
<feColorMatrix type="matrix" values="0 0 0 0 0 0 0 0 0 0 0 0 0 0 0 0 0 0 0.1 0"/>
<feBlend mode="normal" in2="shape" result="effect1_innerShadow_567_14128"/>
</filter>
<filter id="filter1_i_567_14128" x="28.416" y="0" width="37.2168" height="54.353" filterUnits="userSpaceOnUse" color-interpolation-filters="sRGB">
<feFlood flood-opacity="0" result="BackgroundImageFix"/>
<feBlend mode="normal" in="SourceGraphic" in2="BackgroundImageFix" result="shape"/>
<feColorMatrix in="SourceAlpha" type="matrix" values="0 0 0 0 0 0 0 0 0 0 0 0 0 0 0 0 0 0 127 0" result="hardAlpha"/>
<feOffset dy="0.883308"/>
<feGaussianBlur stdDeviation="0.441654"/>
<feComposite in2="hardAlpha" operator="arithmetic" k2="-1" k3="1"/>
<feColorMatrix type="matrix" values="0 0 0 0 0 0 0 0 0 0 0 0 0 0 0 0 0 0 0.1 0"/>
<feBlend mode="normal" in2="shape" result="effect1_innerShadow_567_14128"/>
</filter>
<filter id="filter2_i_567_14128" x="0" y="5.19186" width="34.5117" height="61.4502" filterUnits="userSpaceOnUse" color-interpolation-filters="sRGB">
<feFlood flood-opacity="0" result="BackgroundImageFix"/>
<feBlend mode="normal" in="SourceGraphic" in2="BackgroundImageFix" result="shape"/>
<feColorMatrix in="SourceAlpha" type="matrix" values="0 0 0 0 0 0 0 0 0 0 0 0 0 0 0 0 0 0 127 0" result="hardAlpha"/>
<feOffset dy="0.883308"/>
<feGaussianBlur stdDeviation="0.441654"/>
<feComposite in2="hardAlpha" operator="arithmetic" k2="-1" k3="1"/>
<feColorMatrix type="matrix" values="0 0 0 0 0 0 0 0 0 0 0 0 0 0 0 0 0 0 0.1 0"/>
<feBlend mode="normal" in2="shape" result="effect1_innerShadow_567_14128"/>
</filter>
<filter id="filter3_i_567_14128" x="33.502" y="38.6898" width="5.3457" height="6.2277" filterUnits="userSpaceOnUse" color-interpolation-filters="sRGB">
<feFlood flood-opacity="0" result="BackgroundImageFix"/>
<feBlend mode="normal" in="SourceGraphic" in2="BackgroundImageFix" result="shape"/>
<feColorMatrix in="SourceAlpha" type="matrix" values="0 0 0 0 0 0 0 0 0 0 0 0 0 0 0 0 0 0 127 0" result="hardAlpha"/>
<feOffset dy="0.883308"/>
<feGaussianBlur stdDeviation="0.441654"/>
<feComposite in2="hardAlpha" operator="arithmetic" k2="-1" k3="1"/>
<feColorMatrix type="matrix" values="0 0 0 0 0 0 0 0 0 0 0 0 0 0 0 0 0 0 0.1 0"/>
<feBlend mode="normal" in2="shape" result="effect1_innerShadow_567_14128"/>
</filter>
</defs>
</svg>
