<svg width="115" height="108" viewBox="0 0 115 108" fill="none" xmlns="http://www.w3.org/2000/svg">
<path d="M64.11 64.38C64.11 62.49 62.5699 61.03 60.7099 61.03C58.8499 61.03 57.2 62.5 57.2 64.38C57.2 66.06 58.8499 67.63 60.7099 67.63C62.5699 67.63 64.11 66.06 64.11 64.38Z" fill="#010101"/>
<path d="M50.09 69.67C51.19 70.58 52.57 70.98 53.68 70.98C55.88 70.98 56.43 70.25 57.74 68.89L57.08 68.37C56.75 68.68 55.98 69.52 54.88 69.42C53.78 69.32 52.13 68.9 52.13 65.55V44.74C54.28 44.91 56.41 44.97 58.5 44.92V44.08C56.41 44.08 54.28 44 52.13 43.81V26.17C49.93 25.65 48.07 24.49 45.65 22.3L45.1 22.82C47.41 25.44 48.17 29 48.17 32.35V43.33C46.53 43.07 44.88 42.73 43.23 42.3V43.24C44.88 43.68 46.53 44.01 48.17 44.27V63.89C44.05 55.67 34.87 48.99 30.27 44.92C24.23 39.58 23.57 33.82 23.57 30.15C23.57 26.48 27.08 20.93 33.34 20.93C39.93 20.93 43.22 27.21 43.22 33.08C43.22 38.95 39.71 42.19 35.42 42.19C32.46 42.19 31.14 40.2 29.71 37.79L28.94 38.21C30.37 41.04 32.12 43.24 35.86 43.24C39.6 43.24 46.51 40.83 46.51 32.24C46.51 23.65 40.58 19.67 34.43 19.67C27.84 19.67 20.16 24.38 20.16 33.7C20.16 43.02 30.15 50.46 32.13 52.03C34.11 53.6 46.62 64.28 46.62 73.5C46.62 82.72 42.12 93.19 31.91 93.19C19.94 93.19 19.5 81.98 19.5 75.18C19.5 66.28 23.45 59.26 30.04 59.26C36.63 59.26 42.12 65.33 42.12 71.51C42.12 77.69 37.29 81.88 33.34 81.88C30.49 81.88 29.28 80.83 28.4 80.2L27.85 80.83C29.72 82.3 30.81 82.92 33.34 82.92C35.87 82.92 43.11 80.2 43.11 71.5C43.11 62.8 35.97 58.3 29.82 58.3C22.35 58.3 13.24 64.48 13.24 75.79C13.24 87.1 21.26 94.43 31.8 94.43C41.35 94.43 50.25 86.58 50.25 72.02C50.25 71.22 50.19 70.44 50.07 69.66L50.09 69.67Z" fill="#010101"/>
<path d="M64.7701 40.92C69.4901 40.92 73.3301 37.15 73.3301 32.75H72.6701C72.6701 35.47 69.8201 39.98 64.7601 39.98C59.7001 39.98 59.6001 34.74 59.6001 33.59C59.6001 32.44 60.4801 26.05 66.1901 24.58C70.1401 23.53 74.8601 22.9 78.0501 21.23L67.0701 61.97C64.7601 70.56 58.5101 78.62 50.6001 78.62V79.25C55.7601 79.56 65.3101 76.42 69.1601 61.97L78.1601 27.93V66.37L82.1101 64.8L90.7801 24.23V55.58C90.7801 58.62 90.5601 60.19 86.2801 61.97V63.23C90.5601 61.66 94.7401 60.19 98.2501 59.15V58.42C95.7201 58.73 94.7401 57.79 94.7401 55.38V19.55C94.7401 16.09 97.0501 14.21 98.8001 14.1L98.5801 13.26C95.1801 13.57 92.8701 14.31 90.7801 15.46L82.1101 55.02V18.72L81.5601 18.09C76.6201 21.34 72.0101 22.38 66.4101 23.54C61.2501 24.59 56.9701 28.15 56.9701 33.38C56.9701 37.57 59.7201 40.92 64.7701 40.92Z" fill="#010101"/>
<path d="M100.38 88.8C100.16 88.13 99.83 87.56 100.05 86.89C100.16 86.6 100.16 86.41 100.05 86.22C100.05 85.17 99.28 84.59 98.18 84.78C97.63 84.88 97.3 84.88 96.86 84.68C96.42 84.58 95.98 84.58 95.54 84.58H94.33C94.11 84.58 93.89 84.58 94.11 84.87C94.44 85.06 94.11 85.44 93.89 85.64C93.67 85.74 93.56 85.74 93.45 85.83C92.68 86.12 92.46 86.5 93.01 87.07C93.23 87.26 93.23 87.36 93.23 87.45C93.34 87.64 93.34 87.83 93.23 87.83C93.23 87.93 92.9 88.02 92.79 87.93C92.57 87.74 92.24 87.55 92.24 87.26C92.13 86.59 92.24 86.11 92.46 85.44C92.46 85.25 92.9 85.15 93.12 84.87C93.1933 84.87 93.23 84.8367 93.23 84.77C93.34 84.58 93.45 84.58 93.23 84.48C92.35 83.91 91.47 84 90.7 84.58C90.37 85.06 89.82 85.25 89.38 85.44C89.27 85.54 88.94 85.63 88.94 85.63C88.06 86.3 87.07 86.4 86.19 86.59C85.97 86.69 85.64 86.69 85.42 86.4C85.2 86.11 85.09 85.83 85.31 85.35C85.53 85.06 85.75 84.78 85.86 84.49C86.08 84.2 86.41 83.92 86.52 83.53C86.96 82.57 87.07 81.42 86.85 80.37C86.63 79.6 86.63 78.84 87.07 77.98C87.84 76.45 88.83 74.92 90.25 73.77C90.8 73.39 91.24 72.91 91.68 72.43C92.34 71.95 92.78 72.05 93.11 72.62C93.22 72.81 93.22 73 93.22 73.1C93.33 73.48 93.22 73.77 93 74.06C92.23 74.73 92.23 75.59 92.89 76.36C93 76.55 93.11 76.65 93.22 76.74V77.22C93.11 77.22 92.89 77.32 92.67 77.22C92.45 77.12 92.12 77.03 91.79 76.84C91.24 76.65 90.91 76.84 90.91 77.41C90.8 77.51 90.8 77.6 90.91 77.7C90.91 77.99 91.13 78.18 91.24 78.37C91.46 78.85 91.57 79.33 91.57 79.81C91.35 80.29 91.02 80.29 90.58 80.38V80.48C90.14 80.67 90.14 80.86 90.36 81.15C90.69 81.25 90.91 81.44 91.24 81.63C91.57 81.82 91.79 81.73 92.01 81.44C92.01 81.34 92.12 81.25 92.12 81.15C92.12 80.86 92.45 80.86 92.67 80.86C93 80.86 93.11 80.86 93.22 80.96C93.55 81.06 93.88 81.15 94.1 81.06C94.43 80.77 94.21 80.39 94.1 80.1C94.1 80 93.99 79.91 93.88 79.81C93.88 79.52 93.66 79.43 93.55 79.14C93.22 78.57 93.44 78.37 94.1 78.18C94.43 78.08 94.65 77.89 94.98 77.8C95.31 77.7 95.31 77.61 95.09 77.42C94.98 77.23 94.76 77.13 94.65 76.94C94.43 76.65 94.1 76.37 93.88 75.98C93.66 75.88 93.66 75.6 93.77 75.5C93.88 75.4 94.1 75.4 94.32 75.4C94.54 75.4 94.76 75.5 94.98 75.3C95.2 75.11 95.09 74.92 94.98 74.63L94.43 73.77C93.22 72.33 93.77 70.52 95.53 69.75C95.76 69.67 95.96 69.67 96.09 69.74C96.39 69.64 96.73 69.65 97.09 69.79C97.1 69.76 97.12 69.73 97.14 69.7C97.22 69.56 97.34 69.43 97.45 69.31C97.54 69.21 97.65 69.15 97.76 69.07C97.87 68.99 97.98 68.92 98.1 68.86C98.13 68.85 98.15 68.84 98.18 68.83C98.05 68.64 97.91 68.45 97.77 68.27C97.71 68.19 97.66 68.1 97.63 68C97.21 68.17 96.77 68.34 96.3 68.6C95.31 69.08 94.1 69.46 93.23 70.13C92.68 70.32 92.13 70.51 91.58 70.42C91.25 70.42 90.92 70.32 90.48 70.23L87.3 69.94C86.75 69.84 86.31 70.13 85.87 70.42C85.54 70.61 85.32 70.71 84.99 70.8C84 70.8 83.01 71.09 82.03 71.28C81.26 71.47 80.71 71.85 80.16 72.52C79.83 72.9 79.5 72.9 79.06 72.71C78.4 72.52 78.4 72.23 78.62 71.66L79.28 70.03C79.06 69.93 78.95 69.93 78.73 70.13L78.51 70.61C78.07 71.18 77.63 71.18 77.19 70.61C76.75 70.04 76.53 69.84 75.76 70.04C75.6133 70.1067 75.4666 70.14 75.32 70.14C74.33 70.33 73.89 70.71 74 71.58L73.89 72.54V72.83L73.56 72.64C73.23 72.45 72.9 72.16 72.57 71.87C72.24 71.68 72.02 71.68 71.8 71.87C71.47 72.25 71.25 72.54 70.59 72.54C70.37 72.44 70.15 72.64 70.26 72.83C70.48 73.31 70.59 73.88 71.36 73.88H71.58C71.8733 73.56 72.2033 73.56 72.57 73.88C72.9 74.07 73.12 74.17 73.34 74.36C73.78 74.65 74.22 74.65 74.77 74.46C74.88 74.46 74.99 74.36 75.21 74.36C75.76 74.17 75.98 73.69 75.54 73.02C75.43 72.64 75.21 72.25 75.1 71.87C75.1 71.77 75.21 71.68 75.21 71.68C75.32 71.68 75.43 71.68 75.54 71.78C75.54 72.07 75.65 72.45 75.76 72.64C75.87 73.21 76.2 73.31 76.86 73.12C76.97 73.02 77.19 73.02 77.19 73.02C77.85 73.12 78.4 73.88 78.07 74.36C77.96 74.74 77.85 75.13 77.63 75.41C77.3 76.08 76.64 76.56 75.87 76.94C75.54 77.23 75.21 77.13 74.88 76.65C74.66 76.36 74.55 75.98 74.33 75.69C73.89 75.21 73.45 75.02 72.79 75.21C72.35 75.31 71.91 75.4 71.47 75.59C71.03 75.78 70.59 75.88 70.04 75.59C69.49 75.49 69.16 75.4 68.72 75.59C68.28 75.88 67.95 75.97 67.51 76.16C67.4 76.35 67.07 76.45 66.85 76.45C65.75 76.35 65.09 76.83 64.54 77.6C64.32 77.79 63.99 77.89 63.55 78.08C63.22 78.18 62.89 78.27 62.56 78.56C61.68 79.42 60.8 79.9 59.49 79.61C59.16 79.61 58.94 79.61 58.83 79.9C58.61 80.09 58.39 80.38 58.06 80.47C57.84 80.66 57.62 80.66 57.4 80.76C56.74 80.95 56.41 81.05 56.85 81.62C57.07 82.1 56.96 82.39 56.41 82.58C56.3 82.58 56.08 82.68 55.86 82.68C55.31 82.87 54.54 82.87 53.99 82.87C53.33 83.06 52.56 83.16 52.45 83.92C52.45 84.11 52.23 84.3 52.12 84.4L51.68 85.07C51.57 85.26 51.46 85.55 51.24 85.74C50.91 86.31 50.47 86.79 50.25 87.37C49.92 88.04 49.7 88.33 48.93 88.42C48.27 88.52 47.72 88.61 47.06 88.9C46.95 88.9 46.73 89.09 46.73 89.28L47.17 89.57C47.28 89.67 47.5 89.57 47.72 89.47C47.72 89.47 47.61 89.37 47.61 89.28C47.72 89.18 47.72 89.09 47.72 89.09H48.49C48.6 89.09 48.82 89.19 49.04 89.19C49.15 89.19 49.37 89.09 49.7 89.09C50.25 89.09 50.47 89.38 50.25 89.86C50.25 90.05 50.14 90.15 50.03 90.15C49.81 90.53 49.81 90.92 49.81 91.3C49.92 91.59 49.81 91.87 49.7 92.26C49.7 92.55 49.37 92.83 49.15 93.12C48.82 93.5 48.49 93.89 48.16 94.36C48.05 94.46 48.05 94.65 48.05 94.74C48.27 94.74 48.27 94.64 48.49 94.64C48.49 94.64 48.71 94.54 48.82 94.64C49.37 94.74 49.92 94.54 50.36 94.35C50.8 94.16 51.24 94.16 51.68 94.35H52.23C52.56 94.25 53 94.16 53.22 93.97C53.66 93.78 53.99 93.68 54.32 93.78C55.09 93.97 55.64 93.49 56.08 93.3C56.19 92.63 56.85 92.82 57.29 92.63C57.29 92.53 57.4 92.53 57.4 92.63C57.73 92.92 57.84 92.63 58.06 92.53C58.5 92.15 58.94 91.96 59.49 91.86C59.71 91.86 59.82 91.67 60.04 91.57C60.37 91.19 60.7 90.8 61.03 90.33C61.47 89.95 61.8 89.85 62.35 89.85C62.9 89.85 63.23 89.85 63.56 89.95C64.33 90.33 64.77 90.24 65.21 89.76C65.54 89.38 65.65 89.09 65.98 88.71C66.09 88.61 66.2 88.33 66.42 88.23C66.64 88.13 66.97 87.85 67.41 87.66C67.63 87.47 68.07 87.28 68.51 87.18L69.5 86.89C69.94 86.79 70.16 86.89 70.38 87.08C70.93 87.65 71.26 87.75 71.81 87.27C72.69 86.7 73.02 86.03 72.8 85.07C72.69 84.78 72.69 84.59 72.69 84.3C72.58 83.92 72.69 83.63 73.24 83.63C73.46 83.53 73.9 83.44 74.34 83.34C74.67 83.24 74.78 83.34 74.89 83.63V84.11C74.89 84.59 74.78 84.59 75.44 84.68C75.88 84.78 76.1 85.16 75.99 85.64C75.77 85.93 75.66 86.41 75.55 86.6C75.44 86.98 75.44 87.37 75.55 87.65C75.77 88.13 75.55 88.61 75.44 88.99C74.78 90.14 74.23 91.38 73.02 92.15C72.91 92.15 72.91 92.34 72.91 92.34C73.02 92.34 73.13 92.24 73.24 92.24H73.46C73.24 92.53 73.46 92.53 73.46 92.43C74.23 91.86 75.11 91.95 75.77 92.05C76.43 92.15 76.98 91.95 77.53 91.86C78.96 91.48 80.06 90.81 80.93 89.66C81.04 89.47 81.26 89.37 81.48 89.18C81.92 88.61 82.58 88.13 83.24 87.65C83.57 87.17 84.12 87.17 84.56 87.65C85 88.03 85.22 88.42 85 89.09C84.89 89.57 84.78 89.95 85.33 90.33C85.77 90.62 86.21 90.9 86.87 90.81C87.64 90.71 87.97 90.91 88.41 91.38C88.74 91.76 88.96 92.24 89.29 92.43C89.84 92.72 90.28 93 90.72 93.39C90.94 93.58 91.27 93.77 91.6 93.58C92.15 93.2 92.7 93.2 93.25 93.29C94.02 93.39 94.68 93.1 95.01 92.62C95.23 92.24 95.34 92.14 95.89 92.33L96.55 92.71C97.21 92.9 97.87 92.52 97.76 91.85C97.65 91.08 98.09 90.32 98.64 89.84C98.75 89.65 99.08 89.55 99.19 89.46C99.3 89.65 99.3 89.84 99.3 90.03C99.41 90.13 99.3 90.32 99.3 90.32C99.19 90.61 99.08 90.61 98.86 90.89C98.53 91.27 98.53 91.37 99.08 91.56C99.1 91.58 99.12 91.59 99.14 91.61C99.53 91.23 99.79 90.88 100.16 90.33C100.36 90.03 100.64 89.57 100.74 89.35C100.74 89.35 100.78 89.26 100.81 89.16C100.61 89.1 100.46 88.96 100.39 88.79L100.38 88.8ZM62.94 78.84C63.05 78.84 63.16 78.84 63.38 78.74L63.49 79.12C63.49 79.22 63.38 79.31 63.38 79.41C63.05 79.6 63.16 79.98 63.38 80.37C63.38 80.37 63.49 80.47 63.49 80.56C63.38 80.66 63.49 80.85 63.27 81.04C63.16 81.14 62.94 81.04 62.72 80.94C62.39 80.84 62.17 80.56 62.17 79.98C62.28 79.6 62.39 79.12 62.94 78.83V78.84ZM60.63 86.6C60.63 86.89 60.63 87.08 60.41 87.37C60.3 87.85 60.08 88.14 60.08 88.52C59.75 90.15 58.76 91.3 57.23 92.16C57.01 92.16 56.79 92.26 56.57 92.35C55.8 92.06 55.25 92.25 54.59 92.54C54.48 92.64 54.15 92.64 54.04 92.44V91.96C54.26 91.67 54.48 91.39 54.81 91.19C55.8 90.52 56.68 89.85 57.45 88.89C57.67 88.6367 57.89 88.67 58.11 88.99C58.33 89.18 58.33 89.09 58.55 88.99C58.66 88.89 58.66 88.8 58.66 88.61C58.99 88.13 59.21 87.46 59.54 86.89C59.65 86.6 59.87 86.41 60.09 86.32C60.42 86.13 60.75 86.32 60.64 86.61L60.63 86.6ZM59.97 84.78C59.09 85.26 58.1 85.64 57.22 86.12C57.11 86.22 56.89 86.41 56.78 86.41C56.56 86.6 56.56 86.79 56.78 86.98C57.22 87.36 57 87.65 56.67 88.03C55.68 89.18 54.58 90.42 53.49 91.57C52.83 92.34 52.06 92.91 51.07 93.39C50.85 93.39 50.63 93.58 50.41 93.39C50.3 93.2 50.3 92.91 50.3 92.72C50.52 92.34 50.85 92.15 51.07 91.86C51.51 91.57 51.73 91.19 51.51 90.62C51.29 90.14 51.51 89.76 51.73 89.28C52.06 88.71 52.28 88.13 52.61 87.65C52.83 87.36 52.94 86.98 52.83 86.6C52.72 86.12 52.83 85.64 53.49 85.26C53.49 85.16 53.6 85.16 53.6 85.16C53.71 84.59 54.37 84.3 54.59 83.72C54.92 83.34 55.25 83.24 55.69 83.05C56.57 82.86 57.45 82.57 57.89 81.81C58.11 81.33 58.55 81.14 59.1 81.04C59.43 80.94 59.65 80.75 59.87 80.56C60.31 80.18 60.97 80.18 61.41 80.66C61.74 81.04 62.07 81.33 62.51 81.71C62.62 81.9 62.62 82 62.73 82.09L62.4 82.86C61.74 83.72 60.97 84.3 59.98 84.77L59.97 84.78ZM63.49 88.99C63.27 89.18 62.94 89.18 62.61 88.99C62.06 88.7 61.84 88.42 61.84 88.03C61.95 87.36 62.39 86.98 62.94 86.59C63.16 86.59 63.27 86.69 63.16 86.88C63.16 87.07 63.16 87.36 63.05 87.55C62.83 87.84 62.83 87.93 63.16 88.22L63.27 88.32C63.49 88.51 63.6 88.7 63.49 88.99ZM64.03 84.87C63.7 85.06 63.48 84.97 63.26 84.58L62.93 83.34C62.93 82.86 63.15 82.38 63.59 82C63.81 81.9 64.03 81.9 64.14 82.1C64.14 82.39 64.14 82.77 64.03 82.87C63.59 83.35 63.59 83.83 64.03 84.31C64.14 84.5 64.36 84.6 64.03 84.88V84.87ZM65.79 79.22C65.79 79.41 65.68 79.6 65.57 79.6C65.46 79.6 65.24 79.6 65.02 79.41C64.91 79.31 64.8 79.03 64.8 78.74C64.91 78.17 65.24 77.78 65.68 77.5C65.79 77.4 66.12 77.4 66.34 77.4L66.56 77.88C66.45 77.98 66.34 78.17 66.12 78.26C65.79 78.36 65.79 78.64 65.79 79.03V79.22ZM67.22 84.68C66.23 84.39 65.68 83.44 65.9 82.67C66.01 82.57 66.12 82.38 66.12 82.29C66.34 82.19 66.56 82.1 66.67 82.1C66.78 82.1 66.89 82.39 66.89 82.48C66.89 82.57 66.89 82.67 66.78 82.86C66.67 83.15 66.89 83.43 67.11 83.72C67.33 83.91 67.55 84.2 67.55 84.49C67.55 84.68 67.55 84.87 67.22 84.68ZM68.43 78.36C68.1 77.98 67.99 77.59 67.99 77.12C67.99 76.35 68.21 76.16 68.76 76.07C68.98 75.97 69.09 76.07 69.2 76.17C69.2 76.17 69.2 76.36 69.09 76.36C68.54 76.84 68.65 77.41 69.09 77.8L69.2 77.9C69.2 78.09 69.09 78.28 69.09 78.38H68.43V78.36ZM69.52 81.23V81.52C69.52 81.62 69.41 81.9 69.19 81.9C69.19 81.9 68.86 81.8 68.86 81.71C68.64 81.52 68.64 81.23 68.64 81.04C68.75 80.37 68.97 79.6 69.52 79.32C69.74 79.03 69.96 79.13 70.07 79.42C70.4 79.8 70.29 80.09 69.74 80.38C69.41 80.67 69.3 80.86 69.52 81.24V81.23ZM71.06 84.01C70.62 84.39 70.51 84.78 70.62 85.25C70.73 85.44 70.84 85.82 70.51 85.82C70.18 86.01 69.96 85.72 69.85 85.44C69.74 85.16 69.74 84.87 69.63 84.67C69.63 84.1 70.07 83.62 70.51 83.14C70.62 82.85 70.73 82.85 70.95 83.04C71.28 83.33 71.39 83.61 71.06 84V84.01ZM71.5 77.88C71.39 77.59 71.28 77.31 71.17 76.83C71.06 76.16 71.5 75.87 72.05 75.59H72.6V75.97C72.49 76.07 72.49 76.16 72.38 76.16C72.05 76.64 71.83 77.12 72.05 77.6V77.89L71.83 78.08C71.72 78.18 71.5 77.98 71.5 77.89V77.88ZM73.26 80.37C72.71 80.75 72.82 81.14 73.04 81.61C73.04 81.71 73.15 81.9 73.15 82.09C73.15 82.19 73.04 82.38 72.93 82.47C72.93 82.57 72.49 82.47 72.49 82.37C72.27 82.08 72.05 81.6 72.05 81.32C71.94 81.22 71.94 81.13 71.94 81.13H71.83C72.05 80.65 72.05 80.17 72.38 79.79C72.49 79.41 73.04 79.31 73.26 79.41C73.48 79.51 73.48 80.08 73.26 80.37ZM79.63 75.4C79.85 75.02 79.96 74.73 79.85 74.35C79.85 74.16 80.07 73.87 80.29 73.68C80.73 73.2 81.28 72.91 81.83 72.63C82.16 72.53 82.38 72.44 82.71 72.25C82.93 72.15 83.26 71.87 83.59 71.77C84.69 71.58 85.9 71.48 87.1 71.58C87.54 71.58 87.87 71.48 88.2 71.1C88.42 70.81 88.86 70.62 89.3 70.81C89.41 70.91 89.74 70.91 89.85 70.91C90.07 71.01 90.18 71.1 90.4 71.39C90.18 71.49 90.18 71.68 90.07 71.68C88.97 72.25 87.76 72.73 86.34 72.73C85.79 72.73 85.24 72.83 84.69 72.92C84.47 72.92 84.25 72.92 83.92 73.11C83.92 73.11 83.81 73.11 83.81 73.21C83.81 73.31 83.92 73.4 84.03 73.4L84.47 73.69C84.36 73.88 84.25 74.17 84.03 74.17L82.6 74.74C81.83 75.03 81.17 75.41 80.4 75.7C80.29 75.7 80.18 75.8 80.07 75.8C79.96 75.8 79.74 75.8 79.63 75.7C79.52 75.6 79.52 75.41 79.63 75.41V75.4ZM75.78 81.9C75.56 81.13 75.56 80.37 75.56 79.6C75.45 79.22 75.67 79.12 76 78.93C76.66 78.64 77.54 78.45 78.2 78.45C78.75 78.35 79.3 78.26 79.74 78.55C79.85 78.65 80.07 78.65 80.07 78.84L79.85 79.13C79.74 79.23 79.52 79.32 79.52 79.42C78.97 79.61 78.42 79.99 77.87 80.28C77.54 80.57 77.21 80.76 77.1 81.24C77.1 81.62 76.77 81.91 76.33 82.1C76 82.29 75.78 82.1 75.78 81.91V81.9ZM81.16 84.68C80.83 86.02 80.72 87.36 80.06 88.51C79.84 89.08 79.51 89.66 78.74 89.85C78.41 89.85 78.19 90.04 77.97 90.14C77.86 90.33 77.75 90.33 77.53 90.33C77.2 90.52 76.98 90.33 76.98 89.85C77.2 89.47 77.42 88.89 77.75 88.41C78.41 87.74 78.96 86.88 79.4 86.11C79.62 85.54 80.06 84.96 80.39 84.58C80.5 84.39 80.83 84.39 80.94 84.39C81.05 84.39 81.27 84.58 81.16 84.68ZM80.18 81.81C79.74 82.1 79.74 82.19 80.18 82.58C80.4 82.87 80.4 83.15 80.07 83.35C79.3 84.88 78.42 86.41 77.54 87.85C77.54 88.04 77.43 88.14 77.21 88.23C77.1 88.33 76.99 88.33 76.77 88.52C76.66 88.33 76.66 88.14 76.66 88.04L76.77 87.37C76.88 86.89 76.88 86.41 76.99 86.03L77.32 84.69C77.54 84.31 77.54 83.92 77.54 83.35C77.43 82.87 77.54 82.58 78.09 82.3L79.3 81.15C79.74 80.48 80.51 80.1 81.39 80.1C81.61 80.1 81.94 80.1 82.05 80.39C82.16 80.68 81.94 80.87 81.72 80.96C81.28 81.15 80.73 81.53 80.18 81.82V81.81ZM83.8 83.44C83.69 83.73 83.8 84.11 83.8 84.4C83.8 84.88 83.8 85.45 83.58 86.03C83.47 86.6 82.7 87.08 81.82 86.8C81.49 86.61 81.49 86.32 81.49 85.94C81.71 85.17 81.82 84.41 82.15 83.55C82.48 82.88 82.92 82.21 83.36 81.54C83.47 81.35 83.58 81.25 83.8 81.16C83.91 81.35 84.13 81.54 84.13 81.73C84.02 82.4 83.8 82.88 83.8 83.45V83.44ZM83.8 77.69C83.36 77.69 82.92 77.59 82.7 77.12L81.82 76.64C81.49 76.54 81.49 76.35 81.82 76.26C82.37 75.88 83.03 75.59 83.69 75.21C83.91 75.11 84.13 75.31 84.35 75.69C84.35 75.88 84.46 75.98 84.46 76.17C84.68 76.07 84.9 75.98 85.01 75.88C85.23 75.88 85.34 75.69 85.45 75.59L87.54 73.58C87.54 73.5133 87.5766 73.48 87.65 73.48L88.75 73.19C88.75 73.57 88.75 73.86 88.64 74.15L87.87 75.11C87.43 75.68 86.99 76.16 86.55 76.83C86.33 77.12 85.89 77.4 85.45 77.4L83.8 77.69ZM85.12 83.34C85.01 83.15 85.01 82.86 85.01 82.67C85.12 82.29 85.23 81.71 85.23 81.23L85.45 81.04C85.56 80.85 85.67 80.56 85.89 80.56C86.22 80.66 86.22 80.94 86.22 81.13C86.33 81.9 86.11 82.57 85.89 83.14L85.56 83.43C85.45 83.62 85.12 83.62 85.12 83.33V83.34ZM88.3 90.33C88.19 90.23 88.08 90.23 87.97 90.23C87.42 90.04 87.31 89.66 87.42 89.27C87.42 89.08 87.31 88.98 87.42 88.89H87.53C87.86 89.27 88.08 89.66 88.41 89.94C88.41 90.04 88.41 90.13 88.3 90.32V90.33ZM89.73 88.7C89.29 88.6 88.96 88.32 88.85 87.93C88.85 87.45 88.85 86.88 88.96 86.4C88.96 86.3 89.07 86.21 89.18 86.11C89.29 86.11 89.4 86.01 89.51 86.11C89.62 86.11 89.62 86.3 89.73 86.4C89.4 86.97 89.62 87.64 89.95 88.12C90.06 88.22 90.17 88.31 90.17 88.41C90.17 88.7 90.06 88.89 89.73 88.7ZM93.79 91.38C93.57 91.48 93.24 91.48 93.24 91.38C93.02 91.38 92.69 91.09 92.58 91C92.03 90.43 92.14 89.09 92.69 88.61C92.8 88.42 93.13 88.32 93.24 88.32C93.46 88.51 93.57 88.8 93.79 88.99C93.68 89.37 93.46 89.56 93.24 89.66C92.91 89.85 92.91 90.04 93.24 90.33C93.24 90.62 93.57 90.71 93.68 90.9C93.9 91 94.01 91.19 93.79 91.38ZM96.87 91.38C96.76 91.38 96.43 91.38 96.32 91.28C95.88 90.99 95.55 90.61 95.55 90.04C95.55 89.94 95.55 89.85 95.77 89.75C95.88 89.56 96.1 89.37 96.32 89.18C96.43 89.37 96.43 89.66 96.43 89.85C96.43 90.14 96.54 90.33 96.87 90.62C96.98 90.62 96.98 90.81 96.98 90.91C96.98 91.01 96.98 91.2 96.87 91.39V91.38ZM96.98 88.32C96.76 88.61 96.32 88.61 95.99 88.32C95.55 87.84 95.33 87.46 95.33 86.69C95.33 86.4 95.44 85.92 95.77 85.64C95.99 85.35 96.21 85.35 96.54 85.45C96.87 85.64 96.76 85.93 96.76 86.22C96.76 86.32 96.54 86.41 96.43 86.41C96.1 86.79 95.99 87.08 96.43 87.46C96.54 87.65 96.76 87.65 96.76 87.75C96.98 87.94 97.2 88.13 96.98 88.32Z" fill="#010101"/>
</svg>
