<?xml version="1.0" encoding="UTF-8"?>
<svg id="Layer_2" data-name="Layer 2" xmlns="http://www.w3.org/2000/svg" viewBox="0 0 321.54 210.46">
  <defs>
    <style>
      .cls-1 {
        fill: none;
        stroke: #000;
        stroke-miterlimit: 10;
        stroke-width: .5px;
      }
    </style>
  </defs>
  <g id="Layer_1-2" data-name="Layer 1">
    <g>
      <g>
        <path d="M75.53,95.16h-20.12c-3.07,0-2.3-4.12-1.44-6.52l13.89-36.5h27.78l-13.89,36.5c-.86,2.4-2.68,6.52-6.23,6.52M70.64,45.15l3.16-8.43c.96-2.49,3.07-6.32,6.42-6.32h19.73c3.35,0,2.59,3.83,1.53,6.32l-3.07,8.43c-1.53,3.74-4.31,5.84-7.76,5.84h-16.76c-3.54,0-4.69-2.11-3.26-5.84M101.2,95.16h-15.14c-3.16,0-2.3-4.12-1.34-6.52l19.83-52.11c.96-2.4,3.83-6.13,6.13-6.13h15.14l.38-1.15H54.84l-.48,1.15h15.14c2.3,0,2.39,3.74,1.53,6.13l-19.83,52.11c-.96,2.4-3.16,6.52-6.42,6.52h-15.04l-.48,1.15h71.46l.48-1.15Z"/>
        <path d="M110.98,92.69c-.12.35-.33.71-.64,1.08-.31.37-.71.69-1.18.96-.48.27-1.02.4-1.62.4-.93,0-1.67-.32-2.23-.96-.56-.64-.84-1.41-.84-2.32,0-.79.16-1.42.47-1.88.31-.46.71-.85,1.2-1.17.49-.31,1-.6,1.53-.86l3.31-1.64v6.38ZM107.42,87.11c-.77.35-1.54.76-2.33,1.22-.79.46-1.45,1.04-1.97,1.72-.52.69-.78,1.55-.78,2.6,0,1.11.37,2.06,1.1,2.84.73.78,1.74,1.17,3.01,1.17.79,0,1.49-.15,2.09-.45.6-.3,1.11-.67,1.53-1.12.42-.44.72-.87.9-1.29,0,.98.24,1.7.72,2.16.47.46,1.06.7,1.76.7.63,0,1.16-.17,1.59-.51.43-.34.77-.76,1.03-1.26.26-.5.42-.98.49-1.45l-.63-.21c-.09.35-.27.7-.52,1.06-.26.36-.6.54-1.04.54-.67,0-1.01-.49-1.01-1.46v-11.29c0-.81-.16-1.6-.47-2.35-.31-.75-.84-1.38-1.57-1.86-.73-.49-1.71-.73-2.94-.73-1.14,0-2.12.19-2.96.58-.84.38-1.53.88-2.07,1.48-.54.6-.95,1.22-1.22,1.86-.27.64-.4,1.23-.4,1.76s.15.98.43,1.34c.29.36.69.54,1.2.54s.93-.18,1.2-.52c.27-.35.4-.72.4-1.11,0-.44-.13-.82-.4-1.15-.27-.32-.67-.77-1.2-1.32.26-.46.71-.94,1.36-1.43.65-.49,1.47-.73,2.47-.73,1.09,0,2,.32,2.72.98.72.65,1.08,1.55,1.08,2.68v3.38l-3.55,1.64Z"/>
        <path d="M125.94,79.19c.52-.41,1.18-.61,1.97-.61.88,0,1.67.3,2.37.9.7.6,1.04,1.61,1.04,3.03v8.26c0,1.58-.32,2.77-.97,3.57-.65.8-1.52,1.2-2.61,1.2-.97,0-1.8-.36-2.47-1.08-.67-.72-1.01-1.95-1.01-3.69v-8.43c.07-.53.24-1.09.51-1.67.27-.58.66-1.07,1.18-1.48M124.35,80.11h-.1v-2.96h-.84l-1.53.87-3.55.45v.84h3.55v22.43h-4.15v1.18h12.23v-1.18h-5.71v-6.69c.32.39.77.76,1.34,1.1.57.34,1.28.51,2.14.51,1.37,0,2.52-.46,3.45-1.39.93-.93,1.63-2.18,2.11-3.76.48-1.58.71-3.32.71-5.23,0-1.76-.2-3.33-.61-4.7-.41-1.37-1-2.45-1.79-3.24-.79-.79-1.76-1.18-2.93-1.18-.74,0-1.41.16-1.99.47-.58.31-1.07.7-1.46,1.15-.4.45-.68.9-.87,1.34"/>
        <path d="M141.67,82.34c.07-.53.24-1.09.5-1.67.27-.58.66-1.07,1.18-1.48.52-.41,1.18-.61,1.97-.61.88,0,1.67.3,2.37.91.7.6,1.05,1.61,1.05,3.03v8.26c0,1.58-.33,2.77-.98,3.57-.65.8-1.52,1.2-2.61,1.2-.98,0-1.8-.36-2.47-1.08-.67-.72-1.01-1.95-1.01-3.69v-8.43ZM147.38,101.74h-5.71v-6.69c.32.39.77.76,1.34,1.1.57.34,1.28.51,2.14.51,1.37,0,2.52-.46,3.45-1.39.93-.93,1.63-2.18,2.11-3.76s.71-3.32.71-5.23c0-1.76-.2-3.33-.61-4.7-.41-1.37-1.01-2.45-1.8-3.24-.79-.79-1.76-1.18-2.93-1.18-.74,0-1.4.16-1.99.47-.58.31-1.07.7-1.46,1.15-.39.45-.68.9-.87,1.34h-.1v-2.96h-.84l-1.53.87-3.55.45v.83h3.55v22.43h-4.15v1.18h12.23v-1.18Z"/>
        <path d="M155.11,101.85l-.21-.77c-.07-.33-.17-.67-.31-1.05-.14-.37-.34-.69-.61-.96-.27-.27-.66-.4-1.17-.4-.58,0-1.03.18-1.34.54-.31.36-.47.77-.47,1.23,0,.74.35,1.34,1.06,1.8.71.45,1.63.68,2.77.68,1.49,0,2.71-.35,3.66-1.06.95-.71,1.72-1.62,2.32-2.74.59-1.11,1.08-2.26,1.48-3.45l5.61-17h2.33v-1.18h-5.85v1.18h2.4l-4.43,13.41-4.56-13.41h3.48v-1.18h-8.57v1.18h2.75l5.75,16.86c-.79,2.32-1.7,3.98-2.72,4.96-1.02.99-2.15,1.43-3.38,1.34"/>
        <path d="M217.24,95.16h-20.12c-3.07,0-2.3-4.12-1.44-6.52l13.89-36.5h27.78l-13.89,36.5c-.86,2.4-2.68,6.52-6.23,6.52M212.35,45.15l3.16-8.43c.96-2.49,3.07-6.32,6.42-6.32h19.73c3.35,0,2.59,3.83,1.53,6.32l-3.07,8.43c-1.53,3.74-4.31,5.84-7.76,5.84h-16.77c-3.54,0-4.69-2.11-3.26-5.84M242.91,95.16h-15.14c-3.16,0-2.3-4.12-1.34-6.52l19.83-52.11c.96-2.4,3.83-6.13,6.13-6.13h15.14l.38-1.15h-71.37l-.48,1.15h15.14c2.3,0,2.39,3.74,1.53,6.13l-19.83,52.11c-.96,2.4-3.16,6.52-6.42,6.52h-15.04l-.48,1.15h71.46l.48-1.15Z"/>
        <path d="M254.39,88.64c0,2.16-.37,3.85-1.12,5.07-.74,1.22-1.85,1.83-3.31,1.83s-2.57-.61-3.31-1.83c-.74-1.22-1.12-2.91-1.12-5.07v-3.48c0-2.16.37-3.85,1.12-5.07.74-1.22,1.85-1.83,3.31-1.83s2.57.61,3.31,1.83c.74,1.22,1.12,2.91,1.12,5.07v3.48ZM255.14,80.2c-.57-.94-1.28-1.68-2.14-2.23-.86-.54-1.87-.82-3.03-.82s-2.17.27-3.03.82c-.86.55-1.57,1.29-2.14,2.23-.57.94-.99,1.99-1.27,3.14-.28,1.15-.42,2.34-.42,3.57s.14,2.39.42,3.55c.28,1.16.7,2.21,1.27,3.15.57.94,1.28,1.68,2.14,2.23.86.55,1.87.82,3.03.82s2.17-.27,3.03-.82c.86-.55,1.57-1.29,2.14-2.23.57-.94.99-1.99,1.27-3.15.28-1.16.42-2.35.42-3.55s-.14-2.42-.42-3.57c-.28-1.15-.7-2.19-1.27-3.14"/>
        <path d="M272.71,77.15h-.84l-1.53.87-3.55.45v.83h3.55v12.51c-.09.46-.29.95-.59,1.45-.3.5-.69.92-1.17,1.27-.48.35-1.05.52-1.73.52-1.6,0-2.4-.99-2.4-2.96v-14.95h-.84l-1.53.87-3.55.45v.83h3.55v12.86c0,1.56.37,2.69,1.1,3.41.73.72,1.65,1.08,2.77,1.08.77,0,1.44-.17,2.02-.52.58-.35,1.06-.78,1.45-1.31.38-.52.66-1.02.82-1.48h.1v3.31h.84l1.53-.87,2.47-.45v-.84h-2.47v-17.35Z"/>
        <path d="M291.35,77.74c-.63-.39-1.38-.59-2.27-.59-1.42,0-2.63.53-3.66,1.6-1.02,1.07-1.8,2.4-2.33,4.01l-.17.52h-.1v-6.13h-.84l-1.53.87-3.55.45v.83h3.55v15.82h-4.18v1.18h12.23v-1.18h-5.68v-8.88l.49-1.57c.35-1.12.75-2.15,1.22-3.12.46-.96,1.01-1.74,1.64-2.34.63-.59,1.36-.89,2.2-.89l.52,1.01c.19.33.42.67.7,1.05.28.37.71.56,1.29.56.49,0,.85-.14,1.08-.42.23-.28.35-.64.35-1.08,0-.74-.31-1.31-.94-1.71"/>
        <path d="M113.25,134.46h2.49l8.14-21.27h-38.7l-8.53,22.42v.1h11.69c19.83,0,28.64,6.9,22.9,22.03-5.37,14.18-19.45,22.32-30.46,22.32-7.28,0-17.82-2.59-14.46-14.94.48-1.82,1.63-3.26,3.16-4.02l31.52-16.09.29-.96-36.31,17.15c-5.46,17.72,6.13,20.02,15.61,20.02,13.41,0,27.69-8.05,33.43-23.37,6.51-16.77-5.08-23.28-25.2-23.28h-8.81l7.57-20.21h28.07c3.26,0,4.98.96,3.64,4.5l-6.04,15.61Z"/>
      </g>
      <polygon points="123.89 152.75 152.53 152.75 153.3 150.84 124.56 150.84 123.89 152.75"/>
      <g>
        <path d="M135.36,119.12c.07-.53.24-1.09.51-1.67.27-.58.66-1.08,1.18-1.48.52-.41,1.18-.61,1.97-.61.88,0,1.67.3,2.37.91.7.6,1.04,1.61,1.04,3.03v8.26c0,1.58-.32,2.77-.98,3.57-.65.8-1.52,1.2-2.61,1.2-.98,0-1.8-.36-2.47-1.08-.67-.72-1.01-1.95-1.01-3.69v-8.43ZM129.44,115.25v.83h3.55v22.43h-4.15v1.18h12.23v-1.18h-5.71v-6.69c.32.39.77.76,1.34,1.1.57.33,1.28.5,2.14.5,1.37,0,2.52-.46,3.45-1.39.93-.93,1.63-2.18,2.11-3.76.48-1.58.71-3.32.71-5.23,0-1.77-.2-3.33-.61-4.7-.41-1.37-1.01-2.45-1.79-3.24-.79-.79-1.76-1.18-2.93-1.18-.74,0-1.4.16-1.98.47-.58.31-1.07.7-1.46,1.15-.4.45-.69.9-.87,1.34h-.1v-2.96h-.84l-1.53.87-3.55.45Z"/>
        <path d="M163.16,133.09v-1.18h-1.71v-15.19c0-.91-.2-1.6-.59-2.07-.4-.48-.95-.71-1.67-.71-.79,0-1.45.28-1.99.84-.53.56-.91,1.1-1.11,1.64h-.1c-.05-.81-.27-1.43-.68-1.85s-.92-.63-1.55-.63c-.79,0-1.46.28-2,.84-.55.56-.91,1.1-1.1,1.64h-.1v-2.47h-.66l-1.39.94-2.09.52v.7h1.88v15.82h-1.53v1.18h5.5v-1.18h-1.71v-13.66c.05-.39.15-.8.3-1.24.15-.43.37-.79.64-1.08.28-.29.62-.43,1.01-.43.84,0,1.25.44,1.25,1.32v16.27h3.94v-1.18h-1.71v-13.66c.05-.39.15-.8.31-1.24.16-.43.39-.79.68-1.08.29-.29.64-.43,1.06-.43.77,0,1.15.44,1.15,1.32v16.27h3.97Z"/>
        <path d="M232.31,127.55c0,1.58-.33,2.77-.98,3.57-.65.8-1.52,1.2-2.61,1.2-.98,0-1.8-.36-2.48-1.08-.67-.72-1.01-1.95-1.01-3.69v-8.43c.07-.53.24-1.09.5-1.67.27-.58.66-1.07,1.18-1.48.52-.41,1.18-.61,1.97-.61.88,0,1.67.3,2.37.91.7.61,1.04,1.61,1.04,3.03v8.26ZM232.59,115.11c-.79-.79-1.77-1.18-2.93-1.18-.74,0-1.4.16-1.98.47-.58.31-1.07.7-1.46,1.15-.4.45-.68.9-.87,1.34h-.1v-2.96h-.84l-1.53.87-3.55.45v.83h3.55v22.43h-4.15v1.18h12.23v-1.18h-5.71v-6.69c.32.39.77.76,1.34,1.1.57.33,1.28.5,2.14.5,1.37,0,2.52-.46,3.45-1.39.93-.93,1.63-2.18,2.11-3.76.48-1.58.71-3.32.71-5.23,0-1.76-.2-3.33-.61-4.7-.41-1.37-1-2.45-1.79-3.24"/>
        <path d="M251.33,116.71c0-.91-.2-1.6-.59-2.07-.4-.48-.95-.71-1.67-.71-.79,0-1.45.28-1.99.83-.53.56-.9,1.1-1.11,1.64h-.11c-.05-.81-.27-1.43-.68-1.85-.41-.42-.92-.63-1.55-.63-.79,0-1.46.28-2,.83-.54.56-.91,1.1-1.1,1.64h-.1v-2.47h-.66l-1.39.94-2.09.52v.7h1.88v15.82h-1.53v1.18h5.5v-1.18h-1.71v-13.66c.05-.39.14-.81.3-1.24.15-.43.37-.79.64-1.08.28-.29.62-.43,1.01-.43.83,0,1.25.44,1.25,1.32v16.27h3.94v-1.18h-1.71v-13.66c.05-.39.15-.81.31-1.24.16-.43.39-.79.68-1.08.29-.29.64-.43,1.06-.43.77,0,1.15.44,1.15,1.32v16.27h3.97v-1.18h-1.71v-15.19Z"/>
      </g>
      <path d="M166.31,170.17l50.78-57.98h-43.58l2.09,21.99h2.95l-1.3-13.44c-.38-5.19.19-7.4,7.68-7.4h27.64l-48.86,56.83c-3.55,4.23-7,8.45-10.17,8.45h-4.42l-.38,1.15h37.25l.48-1.15h-19.3c-7.1,0-4.03-4.9-.86-8.45Z"/>
      <g>
        <path class="cls-1" d="M80.58,210.21c-17.2,0-30.11-5.66-38.35-16.82-5.64-7.64-11.09-20.92-4.98-40.74,1.82-5.91,5.51-11.09,10.48-14.78-.05-.72-.08-1.44-.08-2.16,0-3.55.65-7.14,1.89-10.39h-20.29c-9.72,0-18.74-4.83-24.13-12.92-5.39-8.09-6.38-18.27-2.64-27.24l.48-1.15c4.39-10.52,14.42-17.43,25.74-17.82l5.63-14.79c-1.54-1.47-2.92-3.11-4.11-4.9-5.39-8.08-6.38-18.26-2.65-27.23l.48-1.15C32.58,7.26,43.09.25,54.84.25h71.37c9.29,0,18.08,4.5,23.52,12.04,5.44,7.54,6.93,17.3,4,26.12l-.38,1.15c-1.06,3.18-2.63,6.11-4.65,8.7.84.06,1.67.16,2.5.29.51-.03,1.01-.04,1.52-.04h8.57c.51,0,1.03.01,1.55.04.52-.03,1.04-.04,1.55-.04h5.85c1.12,0,2.23.06,3.33.19-.57-.7-1.11-1.44-1.62-2.19-5.39-8.08-6.38-18.26-2.65-27.23l.48-1.15C174.29,7.26,184.8.25,196.55.25h71.37c9.29,0,18.08,4.5,23.51,12.03,5.44,7.53,6.93,17.29,4.01,26.11l-.38,1.15c-1.05,3.15-2.6,6.07-4.6,8.64,5.84.23,11.45,1.95,16.31,5,9.1,5.75,14.52,15.57,14.52,26.27,0,5.11-1.35,10.35-3.81,14.86,0,.27.01.55.01.82v1.19c0,15.99-13.01,29-29,29h-7.21c.5,2.15.75,4.35.75,6.59v1.19c0,15.99-13.01,29-29,29h-3.68c-5.15,4.22-11.79,6.62-18.4,6.62h-12.23c-1.73,0-3.46-.16-5.17-.47,2.65,6.88,2.59,14.59-.32,21.56l-.48,1.15c-4.52,10.83-15.03,17.82-26.76,17.82h-37.25c-9.28,0-18.07-4.49-23.51-12.02-.67-.92-1.28-1.88-1.83-2.88-11.84,10.56-26.89,16.33-42.82,16.33Z"/>
        <path class="cls-1" d="M80.58,207.21c-16.2,0-28.29-5.25-35.93-15.61-5.23-7.09-10.27-19.45-4.53-38.07,1.8-5.83,5.67-10.91,10.78-14.21-.17-1.19-.25-2.4-.25-3.62,0-3.19.59-6.42,1.7-9.34l1.54-4.06h-24.64c-8.71,0-16.8-4.33-21.63-11.58-4.83-7.25-5.72-16.38-2.36-24.43l.48-1.15c4.05-9.72,13.47-15.99,24-15.99h1.05l7.09-18.64c-1.99-1.63-3.72-3.54-5.16-5.69-4.83-7.25-5.72-16.37-2.37-24.42l.48-1.15c4.05-9.73,13.47-16.01,24-16.01h71.37c8.33,0,16.21,4.03,21.09,10.79,4.87,6.76,6.21,15.51,3.58,23.42l-.38,1.15c-1.71,5.13-4.89,9.44-8.99,12.54h.16c.71,0,1.42.03,2.13.09.76-.06,1.53-.09,2.3-.09,1.66,0,3.32.14,4.96.4.56-.04,1.11-.06,1.66-.06h8.57c.51,0,1.03.02,1.55.05.52-.03,1.04-.05,1.55-.05h5.85c2.92,0,5.75.47,8.45,1.41l.91-2.39c-1.99-1.63-3.72-3.54-5.16-5.69-4.83-7.25-5.72-16.37-2.37-24.42l.48-1.15c4.05-9.73,13.47-16.01,24-16.01h71.37c8.33,0,16.21,4.03,21.08,10.78,4.87,6.75,6.22,15.5,3.59,23.4l-.38,1.15c-1.7,5.14-4.89,9.46-9,12.56.86.01,1.73.07,2.59.17,1.09-.11,2.19-.17,3.28-.17,5.76,0,11.33,1.58,16.09,4.57,8.22,5.2,13.12,14.06,13.12,23.73,0,4.92-1.36,9.9-3.84,14.13.03.52.05,1.03.05,1.55v1.19c0,14.34-11.66,26-26,26h-11.16v.31c1.13,2.96,1.71,6.08,1.71,9.29v1.19c0,14.34-11.66,26-26,26h-3.97c-.25,0-.5,0-.75-.01-.02,0-.04,0-.06,0-4.74,4.23-10.98,6.63-17.31,6.63h-12.23c-3.97,0-7.87-.91-11.42-2.64.28.37.55.76.81,1.14,4.83,7.25,5.71,16.39,2.35,24.43l-.48,1.15c-4.05,9.71-13.47,15.98-23.99,15.98h-37.25c-8.32,0-16.2-4.03-21.07-10.77-1.37-1.9-2.48-3.98-3.29-6.18-11.58,11.75-27.25,18.39-43.79,18.39Z"/>
        <path class="cls-1" d="M80.58,204.21c-15.19,0-26.47-4.84-33.52-14.39-4.82-6.53-9.44-17.98-4.07-35.41,1.8-5.83,5.87-10.73,11.24-13.57-.38-1.68-.58-3.4-.58-5.14,0-2.83.52-5.69,1.5-8.27l3.09-8.12h-28.99c-7.71,0-14.86-3.83-19.14-10.24s-5.06-14.49-2.09-21.61l.48-1.15c3.58-8.6,11.92-14.15,21.23-14.15h3.12l8.63-22.69c-2.47-1.67-4.61-3.81-6.27-6.3-4.28-6.41-5.06-14.48-2.1-21.6l.48-1.15c3.58-8.6,11.92-14.16,21.23-14.16h71.37c7.37,0,14.34,3.57,18.65,9.55,4.31,5.98,5.5,13.72,3.17,20.71l-.38,1.15c-3.13,9.42-11.9,15.74-21.82,15.74h-3.08l-.29.77c.32-.01.64-.02.96-.02h.84c.71,0,1.42.03,2.12.1.76-.06,1.54-.1,2.31-.1,2.14,0,4.27.25,6.35.75,1.9-.5,3.85-.75,5.8-.75h.84c.71,0,1.42.03,2.12.1.76-.06,1.54-.1,2.31-.1,1.61,0,3.23.14,4.81.42.62-.05,1.22-.07,1.81-.07h8.57c.51,0,1.04.02,1.55.05.51-.03,1.04-.05,1.55-.05h5.85c3.56,0,7.01.81,10.16,2.37l2.82-7.4c-2.47-1.67-4.61-3.81-6.27-6.3-4.28-6.41-5.06-14.48-2.1-21.6l.48-1.15c3.58-8.6,11.92-14.16,21.23-14.16h71.37c7.37,0,14.34,3.57,18.65,9.54,4.31,5.97,5.5,13.71,3.18,20.7l-.38,1.15c-3.13,9.42-11.9,15.76-21.83,15.76h-3.08l-.28.75h.28c1.25,0,2.49.1,3.72.3,1.22-.2,2.47-.3,3.7-.3h.84c1.52,0,3.08.17,4.65.49,1.57-.33,3.12-.49,4.62-.49h.84c.99,0,1.99.06,2.98.19,1.09-.13,2.19-.19,3.29-.19,5.2,0,10.21,1.42,14.49,4.11,7.36,4.65,11.71,12.56,11.71,21.19,0,4.73-1.38,9.44-3.91,13.39.08.76.11,1.52.11,2.29v1.19c0,12.68-10.32,23-23,23h-12.23c-.31,0-.62-.02-.92-.04-.34.06-.67.12-1.01.16v3.75c1.13,2.77,1.71,5.69,1.71,8.71v1.19c0,12.68-10.32,23-23,23h-3.97c-.25,0-.5,0-.75-.01-.25,0-.5.01-.75.01h-.5c-4.29,4.22-10.09,6.62-16.11,6.62h-12.23c-4.33,0-8.58-1.23-12.22-3.52l-3.25,3.71c.87.92,1.65,1.92,2.36,2.98,4.27,6.42,5.05,14.5,2.08,21.61l-.48,1.15c-3.59,8.59-11.92,14.14-21.22,14.14h-37.25c-7.36,0-14.33-3.56-18.64-9.53-2.29-3.17-3.7-6.84-4.17-10.63-11.08,13.52-27.7,21.6-45.34,21.6Z"/>
      </g>
      <path class="cls-1" d="M312.29,79.45c0-7.59-3.83-14.55-10.25-18.61-.02-.01-.04-.02-.06-.04-3.81-2.39-8.27-3.65-12.9-3.65-1.12,0-2.23.07-3.31.22-.96-.14-1.95-.22-2.96-.22h-.84c-1.56,0-3.11.21-4.62.56-1.49-.36-3.04-.56-4.65-.56h-.84c-1.25,0-2.48.12-3.7.35-1.21-.23-2.45-.35-3.72-.35h-.83c-1.33,0-2.66.14-3.95.4l2.72-7.15h5.15c8.62,0,16.27-5.52,18.98-13.7l.38-1.15c2.02-6.1.99-12.79-2.77-18-3.76-5.21-9.79-8.29-16.22-8.29h-71.37c-8.08,0-15.36,4.86-18.46,12.31l-.48,1.15c-2.57,6.17-1.88,13.22,1.83,18.78,1.91,2.87,4.5,5.15,7.48,6.68l-4.99,13.11c-3.29-2.38-7.32-3.79-11.68-3.79h-5.85c-.52,0-1.04.02-1.55.06-.51-.04-1.03-.06-1.55-.06h-8.57c-.66,0-1.31.04-1.95.1-1.52-.29-3.08-.45-4.67-.45-.78,0-1.55.04-2.32.11-.69-.07-1.39-.11-2.1-.11h-.84c-1.96,0-3.9.29-5.77.85-2.06-.56-4.2-.85-6.39-.85-.78,0-1.55.04-2.32.11-.69-.07-1.39-.11-2.1-.11h-.84c-1.91,0-3.8.28-5.61.81l2.88-7.56h5.15c8.61,0,16.26-5.51,18.98-13.69l.38-1.15c2.03-6.1,1-12.8-2.76-18.01s-9.79-8.3-16.22-8.3H54.84c-8.08,0-15.36,4.86-18.46,12.31l-.48,1.15c-2.57,6.17-1.88,13.22,1.83,18.78,1.91,2.87,4.5,5.15,7.48,6.68l-10.27,26.98h-5.19c-8.07,0-15.35,4.85-18.46,12.3l-.48,1.15c-2.57,6.17-1.89,13.22,1.82,18.79,3.71,5.56,9.95,8.91,16.64,8.91h33.34l-4.64,12.19c-.86,2.27-1.31,4.78-1.31,7.21s.41,4.63,1.16,6.74l-1.39.66c-5.08,2.4-8.92,6.83-10.57,12.19-5,16.23-.79,26.76,3.62,32.74,6.45,8.74,16.92,13.17,31.11,13.17,20.13,0,38.67-11.14,48.47-28.45h.94l-.24.73c-2.02,6.1-.98,12.79,2.78,17.99,3.76,5.2,9.79,8.29,16.21,8.29h37.25c8.07,0,15.35-4.85,18.46-12.29l.48-1.15c2.58-6.17,1.9-13.23-1.81-18.79-1.13-1.69-2.49-3.18-4.03-4.43l6.95-7.93c3.45,2.84,7.87,4.54,12.69,4.54h12.23c5.89,0,11.18-2.56,14.84-6.62h1.78c.25,0,.5,0,.75-.01.25,0,.5.01.75.01h3.97c11.05,0,20-8.95,20-20v-1.19c0-2.88-.61-5.62-1.71-8.1v-7.09s0-.04,0-.06c1.29,0,2.57-.15,3.82-.4.37.02.74.06,1.11.06h12.23c11.05,0,20-8.95,20-20v-1.19c0-1.03-.08-2.04-.23-3.03,2.61-3.65,4.03-8.08,4.03-12.64Z"/>
    </g>
  </g>
</svg>